<?xml version="1.0" encoding="utf-8"?>
<!-- Generator: Adobe Illustrator 23.0.1, SVG Export Plug-In . SVG Version: 6.00 Build 0)  -->
<svg version="1.1" id="Layer_1" xmlns="http://www.w3.org/2000/svg" xmlns:xlink="http://www.w3.org/1999/xlink" x="0px" y="0px"
	 viewBox="0 0 22 21" style="enable-background:new 0 0 22 21;" xml:space="preserve">
<style type="text/css">
	.st0{fill:#F2F2F2;}
</style>
<path class="st0" d="M7.4,9.8v1.2c0,0.3-0.3,0.6-0.6,0.6H5.6c-0.3,0-0.6-0.3-0.6-0.6V9.8c0-0.3,0.3-0.6,0.6-0.6h1.2
	C7.1,9.2,7.4,9.5,7.4,9.8z M6.8,14.1H5.6c-0.3,0-0.6,0.3-0.6,0.6v1.2c0,0.3,0.3,0.6,0.6,0.6h1.2c0.3,0,0.6-0.3,0.6-0.6v-1.2
	C7.4,14.4,7.1,14.1,6.8,14.1z M11.6,9.2h-1.2c-0.3,0-0.6,0.3-0.6,0.6v1.2c0,0.3,0.3,0.6,0.6,0.6h1.2c0.3,0,0.6-0.3,0.6-0.6V9.8
	C12.2,9.5,12,9.2,11.6,9.2z M11.6,14.1h-1.2c-0.3,0-0.6,0.3-0.6,0.6v1.2c0,0.3,0.3,0.6,0.6,0.6h1.2c0.3,0,0.6-0.3,0.6-0.6v-1.2
	C12.2,14.4,12,14.1,11.6,14.1z M16.5,9.2h-1.2c-0.3,0-0.6,0.3-0.6,0.6v1.2c0,0.3,0.3,0.6,0.6,0.6h1.2c0.3,0,0.6-0.3,0.6-0.6V9.8
	C17.1,9.5,16.8,9.2,16.5,9.2z M16.5,14.1h-1.2c-0.3,0-0.6,0.3-0.6,0.6v1.2c0,0.3,0.3,0.6,0.6,0.6h1.2c0.3,0,0.6-0.3,0.6-0.6v-1.2
	C17.1,14.4,16.8,14.1,16.5,14.1z M5.6,4.4h1.2c0.3,0,0.6-0.3,0.6-0.6V1.4c0-0.3-0.3-0.6-0.6-0.6H5.6C5.2,0.8,5,1,5,1.4v2.4
	C5,4.1,5.2,4.4,5.6,4.4z M20.7,5.6v12.1c0,1.3-1.1,2.4-2.4,2.4H3.7c-1.3,0-2.4-1.1-2.4-2.4V5.6c0-1.3,1.1-2.4,2.4-2.4h0.6v0.6
	C4.4,4.4,4.9,5,5.6,5h1.2C7.4,5,8,4.4,8,3.8V3.2h6.1v0.6c0,0.7,0.5,1.2,1.2,1.2h1.2c0.7,0,1.2-0.5,1.2-1.2V3.2h0.6
	C19.6,3.2,20.7,4.3,20.7,5.6z M19.5,8c0-0.7-0.5-1.2-1.2-1.2H3.7C3.1,6.8,2.5,7.4,2.5,8v9.7c0,0.7,0.5,1.2,1.2,1.2h14.6
	c0.7,0,1.2-0.5,1.2-1.2V8z M15.3,4.4h1.2c0.3,0,0.6-0.3,0.6-0.6V1.4c0-0.3-0.3-0.6-0.6-0.6h-1.2c-0.3,0-0.6,0.3-0.6,0.6v2.4
	C14.7,4.1,14.9,4.4,15.3,4.4z"/>
</svg>
