<?xml version="1.0" encoding="utf-8"?>
<!-- Generator: Adobe Illustrator 23.0.1, SVG Export Plug-In . SVG Version: 6.00 Build 0)  -->
<svg version="1.1" id="Layer_1" xmlns="http://www.w3.org/2000/svg" xmlns:xlink="http://www.w3.org/1999/xlink" x="0px" y="0px"
	 viewBox="0 0 22 21" style="enable-background:new 0 0 22 21;" xml:space="preserve">
<style type="text/css">
	.st0{fill:#F4F4F4;}
</style>
<path class="st0" d="M2,0.4C1.5,0.6,1,1,0.8,1.5c-0.1,0.3-0.1,0.3-0.1,4l0,3.7l0.1,0.2c0.1,0.1,1.3,1.4,5.6,5.7c3,3,5.6,5.5,5.7,5.6
	c0.3,0.2,0.6,0.3,1.1,0.3c0.4,0,0.4,0,0.7-0.2c0.3-0.1,0.4-0.2,1.8-1.6c4.5-4.4,5.2-5.2,5.3-5.3c0.2-0.3,0.3-0.6,0.3-1.1
	c0-0.4,0-0.4-0.2-0.7c-0.1-0.3-0.4-0.5-5.7-5.9C10.8,1.4,10,0.6,9.8,0.5L9.5,0.3H5.9C2.3,0.3,2.2,0.3,2,0.4z M14.5,7.3
	c4.1,4.1,5.5,5.5,5.5,5.6c0,0.1-6.5,6.5-6.7,6.6c-0.1,0-0.6-0.5-5.6-5.4L2.2,8.7V5.3c0-3.1,0-3.4,0.1-3.5c0.1-0.1,0.2-0.1,3.4-0.1H9
	L14.5,7.3z"/>
<circle class="st0" cx="6.5" cy="6.2" r="2"/>
</svg>
