<?xml version="1.0" encoding="utf-8"?>
<!-- Generator: Adobe Illustrator 23.0.1, SVG Export Plug-In . SVG Version: 6.00 Build 0)  -->
<svg version="1.1" id="Layer_1" xmlns="http://www.w3.org/2000/svg" xmlns:xlink="http://www.w3.org/1999/xlink" x="0px" y="0px"
	 viewBox="0 0 22 21" style="enable-background:new 0 0 22 21;" xml:space="preserve">
<style type="text/css">
	.st0{fill:#F2F2F2;}
</style>
<g transform="translate(0.000000,512.000000) scale(0.100000,-0.100000)">
	<path class="st0" d="M81,5105.5c-4.1-2.1-5.6-7.2-3.4-11.3c0.4-0.7,3.6-4.1,7.2-7.6l6.5-6.2l-26.7-25.9
		c-25-24.2-26.8-26.1-28.1-28.6c-3.5-6.8-3.5-14.5,0-21c1.3-2.5,3.6-4.8,25.9-26.4c14.1-13.7,25.4-24.3,26.7-25.2
		c3.6-2.3,6.8-3.2,11.6-3.2s8,0.9,11.6,3.2c1.3,0.9,13.3,12.2,28.5,26.9c22.5,21.9,26.4,25.7,27.4,27.7c1.8,3.5,2.5,6,2.5,9.8
		c0,3.8-0.6,6.3-2.5,9.8c-1.3,2.5,1.5-0.3-48.9,49.1c-17.8,17.4-29.8,28.9-30.5,29.2C86.7,5106.5,82.7,5106.4,81,5105.5z
		 M153.3,5019l0.4-1.1h-51.2c-28.1,0-51.1,0.1-51.1,0.3c0,0.2,11.6,11.6,25.9,25.3l25.9,25l24.9-24.3
		C141.7,5030.9,153,5019.5,153.3,5019z"/>
	<path class="st0" d="M166.4,4994.6c-1.1-3.4-2.9-6.6-7.6-13.4c-6.9-10.1-8.2-13.1-8.2-19c0-5.2,1.4-8.6,4.8-12.2
		c3.7-3.7,7.7-5.2,13.1-4.9c2.6,0.2,3.8,0.4,5.8,1.4c5.2,2.5,8.7,7.3,9.6,13.1c0.9,6.1-0.7,10.5-7.8,20.9
		c-4.9,7.3-7.1,11.1-7.9,13.9c-0.3,0.9-0.6,1.8-0.7,2C167.3,4996.6,166.8,4995.8,166.4,4994.6z"/>
	<path class="st0" d="M38.7,4928.4c-6.3-2.8-6.6-11.9-0.4-14.8c1.7-0.8,1.7-0.8,71.2-0.7l69.6,0.1l1.5,1.2c2.1,1.6,3.2,3.3,3.5,5.4
		c0.5,3.5-1.3,7-4.5,8.6l-1.7,0.9H109C42.9,4929.2,40.1,4929.1,38.7,4928.4z"/>
</g>
</svg>
