<?xml version="1.0" encoding="utf-8"?>
<!-- Generator: Adobe Illustrator 23.0.1, SVG Export Plug-In . SVG Version: 6.00 Build 0)  -->
<svg version="1.1" id="Layer_1" xmlns="http://www.w3.org/2000/svg" xmlns:xlink="http://www.w3.org/1999/xlink" x="0px" y="0px"
	 viewBox="0 0 15.6 15.8" style="enable-background:new 0 0 15.6 15.8;" xml:space="preserve">
<style type="text/css">
	.st0{fill:#457AAA;}
	.st1{fill:#FFFFFF;}
</style>
<g>
	<circle class="st0" cx="7.8" cy="7.9" r="7.6"/>
	<path class="st1" d="M6.6,4.4v2.8H5.9c0,0-0.5,0.1-0.2,0.5l1.9,2.4c0,0,0.3,0.4,0.6,0L10,7.8c0,0,0.2-0.5-0.2-0.5H9V4.2
		c0,0-0.1-0.9-1.2-0.9C7.8,3.3,6.6,3.2,6.6,4.4z"/>
	<path class="st1" d="M10.3,12.5h-5c-0.2,0-0.4-0.2-0.4-0.4v-0.3c0-0.2,0.2-0.4,0.4-0.4h5c0.2,0,0.4,0.2,0.4,0.4v0.3
		C10.7,12.3,10.5,12.5,10.3,12.5z"/>
</g>
</svg>
