<?xml version="1.0" encoding="utf-8"?>
<!-- Generator: Adobe Illustrator 23.0.1, SVG Export Plug-In . SVG Version: 6.00 Build 0)  -->
<svg version="1.1" id="Layer_1" xmlns="http://www.w3.org/2000/svg" xmlns:xlink="http://www.w3.org/1999/xlink" x="0px" y="0px"
	 viewBox="0 0 29 41" style="enable-background:new 0 0 29 41;" xml:space="preserve">
<style type="text/css">
	.st0{fill:#FFFFFF;}
</style>
<path id="XMLID_3_" class="st0" d="M1.4,0.3H18v9h9.4v26.9h-26V0.3L1.4,0.3z M25,19.4H8.5v1.8H25V19.4z M5.4,18.5
	c-1,0-1.8,0.8-1.8,1.8c0,1,0.8,1.8,1.8,1.8s1.8-0.8,1.8-1.8C7.2,19.4,6.4,18.5,5.4,18.5L5.4,18.5z M25,24.6H8.5v1.8H25V24.6z
	 M5.4,23.8c-1,0-1.8,0.8-1.8,1.8s0.8,1.8,1.8,1.8s1.8-0.8,1.8-1.8S6.4,23.8,5.4,23.8L5.4,23.8z M25,29.9H8.5v1.8H25V29.9z M5.4,29
	c-1,0-1.8,0.8-1.8,1.8s0.8,1.8,1.8,1.8s1.8-0.8,1.8-1.8S6.4,29,5.4,29L5.4,29z M19,1.1V8h7.3L19,1.1L19,1.1z"/>
</svg>
