<?xml version="1.0" encoding="utf-8"?>
<!-- Generator: Adobe Illustrator 23.1.0, SVG Export Plug-In . SVG Version: 6.00 Build 0)  -->
<svg version="1.1" id="Layer_1" xmlns="http://www.w3.org/2000/svg" xmlns:xlink="http://www.w3.org/1999/xlink" x="0px" y="0px"
	 viewBox="0 0 15.6 15.8" style="enable-background:new 0 0 15.6 15.8;" xml:space="preserve">
<style type="text/css">
	.st0{fill:#457AAA;}
	.st1{fill:#FFFFFF;}
</style>
<g>
	<circle class="st0" cx="7.8" cy="7.9" r="7.6"/>
</g>
<g>
	<path class="st1" d="M10.6,3.3C9.6,3.3,8.9,4,8.9,5c0,0,0,0.1,0,0.1L5.8,6.5C5.5,6.2,5.1,6.1,4.7,6.1C3.8,6.1,3,6.8,3,7.7
		c0,0.9,0.7,1.7,1.7,1.7c0.3,0,0.6-0.1,0.8-0.2l1.3,1.1c-0.1,0.2-0.1,0.4-0.1,0.5c0,0.9,0.7,1.7,1.7,1.7c0.9,0,1.7-0.7,1.7-1.7
		c0-0.9-0.7-1.7-1.7-1.7c-0.3,0-0.6,0.1-0.8,0.2L6.3,8.3c0.1-0.2,0.1-0.4,0.1-0.5c0,0,0-0.1,0-0.1l3.1-1.4c0.3,0.3,0.7,0.5,1.1,0.5
		c0.9,0,1.7-0.7,1.7-1.7C12.2,4,11.5,3.3,10.6,3.3z"/>
</g>
</svg>
