<?xml version="1.0" encoding="utf-8"?>
<!-- Generator: Adobe Illustrator 23.0.1, SVG Export Plug-In . SVG Version: 6.00 Build 0)  -->
<svg version="1.1" id="Layer_1" xmlns="http://www.w3.org/2000/svg" xmlns:xlink="http://www.w3.org/1999/xlink" x="0px" y="0px"
	 viewBox="0 0 22 21" style="enable-background:new 0 0 22 21;" xml:space="preserve">
<style type="text/css">
	.st0{fill:#F4F4F4;}
</style>
<path class="st0" d="M9.4,15.7l-1.5-1.4l4.9-5c1.8,0.9,4.1,0.7,5.6-0.9c1.8-1.9,1.8-4.9-0.1-6.7c-1.9-1.8-4.9-1.8-6.7,0.1
	c-1.5,1.5-1.7,3.8-0.7,5.6l-9.7,9.9c-0.5,0.5-0.5,1.4,0,1.9c0.5,0.5,1.4,0.5,1.9,0l1.5,1.4c0.3,0.3,0.7,0.3,1,0l0.9-1
	c0.3-0.3,0.3-0.7,0-1l-1.5-1.4l0.9-1l1.5,1.4c0.3,0.3,0.7,0.3,1,0l0.9-1C9.7,16.4,9.7,15.9,9.4,15.7z M13.5,3.6
	c0.8-0.8,2.1-0.8,2.9,0c0.8,0.8,0.8,2.1,0,2.9c-0.8,0.8-2.1,0.8-2.9,0C12.8,5.7,12.8,4.4,13.5,3.6z"/>
</svg>
