<?xml version="1.0" encoding="utf-8"?>
<!-- Generator: Adobe Illustrator 23.0.2, SVG Export Plug-In . SVG Version: 6.00 Build 0)  -->
<svg version="1.1" id="Layer_1" xmlns="http://www.w3.org/2000/svg" xmlns:xlink="http://www.w3.org/1999/xlink" x="0px" y="0px"
	 viewBox="0 0 487 117" style="enable-background:new 0 0 487 117;" xml:space="preserve">
<style type="text/css">
	.st0{fill:#457AAA;}
	.st1{fill:#FFFFFF;}
	.st2{fill:#636363;}
</style>
<path class="st0" d="M116.43,115.85H10.13c-4.83,0-8.75-3.92-8.75-8.75V11.53c0-4.83,3.92-8.75,8.75-8.75h106.3
	c4.83,0,8.75,3.92,8.75,8.75v95.57C125.18,111.93,121.26,115.85,116.43,115.85z"/>
<g>
	<path class="st1" d="M51,97.11l-26.04-0.14c0,0-4,0-4-4.65V25.27c0,0-0.64-3.8,3.36-3.8l28.05-0.22c0,0,3.81-0.23,3.65,3.78
		c0,0-0.56,2.66-3.65,2.66l-19.24-0.01c0,0-3.19-0.03-3.2,3.52v56.07c0,0-0.25,3.66,2.72,3.66l18.25-0.14c0,0,4.51-0.49,4.64,3.38
		C55.53,94.16,56.01,97.11,51,97.11z"/>
	<path class="st1" d="M73.47,21.24l28.13,0.14c0,0,4,0,4,4.65v67.06c0,0,0.64,3.8-3.36,3.8l-30.13,0.22c0,0-3.81,0.23-3.65-3.78
		c0,0,0.56-2.66,3.65-2.66l21.33,0.01c0,0,3.19,0.03,3.2-3.52V31.1c0,0,0.25-3.66-2.72-3.66l-20.34,0.14c0,0-4.51,0.49-4.64-3.38
		C68.93,24.2,68.45,21.24,73.47,21.24z"/>
</g>
<g>
	<path class="st2" d="M166.16,51.56h-6.44V11.84h22.41v5.49h-15.98v12.42h14.97v5.51h-14.97V51.56z"/>
	<path class="st2" d="M215.31,36.48c0,4.91-1.26,8.74-3.78,11.49c-2.52,2.75-6.02,4.13-10.51,4.13c-2.81,0-5.29-0.63-7.44-1.9
		c-2.16-1.27-3.81-3.09-4.97-5.46c-1.16-2.37-1.74-5.13-1.74-8.26c0-4.87,1.25-8.68,3.75-11.41c2.5-2.73,6.02-4.1,10.57-4.1
		c4.35,0,7.79,1.4,10.32,4.2C214.04,27.96,215.31,31.74,215.31,36.48z M193.44,36.48c0,6.94,2.56,10.41,7.69,10.41
		c5.07,0,7.61-3.47,7.61-10.41c0-6.86-2.55-10.3-7.66-10.3c-2.68,0-4.62,0.89-5.83,2.66C194.04,30.62,193.44,33.17,193.44,36.48z"/>
	<path class="st2" d="M237.89,20.97c1.29,0,2.35,0.09,3.18,0.27l-0.62,5.95c-0.91-0.22-1.85-0.33-2.83-0.33
		c-2.55,0-4.62,0.83-6.21,2.5c-1.59,1.67-2.38,3.83-2.38,6.49v15.7h-6.38V21.51h5l0.84,5.3h0.33c1-1.79,2.3-3.21,3.9-4.27
		S236.04,20.97,237.89,20.97z"/>
	<path class="st2" d="M271.96,51.56h-6.41V33.03c0-2.3-0.44-4.02-1.31-5.15c-0.87-1.13-2.23-1.7-4.07-1.7c-2.46,0-4.27,0.8-5.42,2.4
		s-1.73,4.27-1.73,8v14.97h-6.38V21.51h5l0.9,3.94h0.33c0.83-1.43,2.04-2.54,3.63-3.31c1.58-0.78,3.33-1.17,5.23-1.17
		c4.62,0,7.68,1.58,9.18,4.73h0.43c0.89-1.48,2.14-2.64,3.75-3.48c1.61-0.83,3.46-1.25,5.54-1.25c3.59,0,6.2,0.91,7.84,2.72
		c1.64,1.81,2.46,4.57,2.46,8.29v19.59h-6.38V33.03c0-2.3-0.44-4.02-1.32-5.15c-0.88-1.13-2.24-1.7-4.09-1.7
		c-2.48,0-4.3,0.77-5.45,2.32c-1.15,1.55-1.73,3.93-1.73,7.13V51.56z"/>
	<path class="st2" d="M315.19,20.97c3.75,0,6.67,1.36,8.76,4.08s3.14,6.53,3.14,11.44c0,4.93-1.06,8.76-3.18,11.51
		c-2.12,2.74-5.06,4.12-8.83,4.12c-3.8,0-6.76-1.37-8.86-4.1h-0.44l-1.17,3.56h-4.78V9.28h6.38v10.05c0,0.74-0.04,1.85-0.11,3.31
		c-0.07,1.47-0.13,2.4-0.16,2.8h0.27C308.25,22.46,311.24,20.97,315.19,20.97z M313.53,26.18c-2.57,0-4.42,0.76-5.56,2.27
		c-1.13,1.51-1.72,4.04-1.75,7.59v0.43c0,3.66,0.58,6.31,1.74,7.95c1.16,1.64,3.05,2.46,5.68,2.46c2.27,0,3.98-0.9,5.15-2.69
		c1.17-1.79,1.75-4.38,1.75-7.77C320.54,29.6,318.2,26.18,313.53,26.18z"/>
	<path class="st2" d="M355.7,51.56l-0.9-3.94h-0.33c-0.89,1.39-2.15,2.49-3.79,3.29c-1.64,0.8-3.51,1.19-5.61,1.19
		c-3.64,0-6.36-0.9-8.15-2.72c-1.79-1.81-2.69-4.55-2.69-8.23V21.51h6.44v18.53c0,2.3,0.47,4.03,1.41,5.18
		c0.94,1.15,2.42,1.73,4.43,1.73c2.68,0,4.65-0.8,5.91-2.4c1.26-1.6,1.89-4.29,1.89-8.06V21.51h6.41v30.05H355.7z"/>
	<path class="st2" d="M369.44,13.55c0-1.14,0.31-2.02,0.94-2.64c0.62-0.62,1.52-0.92,2.68-0.92c1.12,0,2,0.31,2.62,0.92
		c0.62,0.62,0.94,1.49,0.94,2.64c0,1.09-0.31,1.94-0.94,2.57c-0.62,0.62-1.5,0.94-2.62,0.94c-1.16,0-2.05-0.31-2.68-0.94
		C369.76,15.49,369.44,14.64,369.44,13.55z M376.21,51.56h-6.38V21.51h6.38V51.56z"/>
	<path class="st2" d="M391.72,51.56h-6.38V9.28h6.38V51.56z"/>
	<path class="st2" d="M410.99,52.1c-3.75,0-6.68-1.36-8.78-4.08c-2.1-2.72-3.15-6.53-3.15-11.44c0-4.93,1.06-8.76,3.19-11.51
		c2.13-2.74,5.08-4.12,8.84-4.12c3.95,0,6.96,1.46,9.02,4.37h0.33c-0.31-2.16-0.46-3.86-0.46-5.11V9.28h6.41v42.28h-5l-1.11-3.94
		h-0.3C417.93,50.61,414.93,52.1,410.99,52.1z M412.7,46.94c2.63,0,4.54-0.74,5.73-2.21c1.2-1.48,1.81-3.87,1.85-7.19v-0.9
		c0-3.79-0.62-6.47-1.85-8.07c-1.23-1.59-3.16-2.39-5.79-2.39c-2.25,0-3.98,0.91-5.19,2.73c-1.21,1.82-1.82,4.41-1.82,7.78
		c0,3.33,0.59,5.87,1.76,7.62C408.58,46.07,410.34,46.94,412.7,46.94z"/>
	<path class="st2" d="M448.64,52.1c-4.67,0-8.33-1.36-10.96-4.09c-2.64-2.73-3.95-6.48-3.95-11.26c0-4.91,1.22-8.77,3.67-11.57
		c2.45-2.81,5.81-4.21,10.08-4.21c3.97,0,7.1,1.21,9.4,3.61c2.3,2.41,3.45,5.72,3.45,9.94v3.45H440.3c0.09,2.92,0.88,5.16,2.36,6.72
		c1.48,1.57,3.58,2.35,6.27,2.35c1.78,0,3.43-0.17,4.96-0.5c1.53-0.33,3.17-0.89,4.93-1.67v5.19c-1.56,0.74-3.14,1.27-4.73,1.58
		S450.69,52.1,448.64,52.1z M447.47,25.8c-2.03,0-3.65,0.64-4.88,1.93c-1.22,1.29-1.95,3.16-2.19,5.62h13.64
		c-0.04-2.48-0.63-4.36-1.79-5.64C451.1,26.44,449.5,25.8,447.47,25.8z"/>
	<path class="st2" d="M482.82,20.97c1.29,0,2.35,0.09,3.18,0.27l-0.62,5.95c-0.91-0.22-1.85-0.33-2.83-0.33
		c-2.55,0-4.62,0.83-6.21,2.5s-2.38,3.83-2.38,6.49v15.7h-6.39V21.51h5l0.84,5.3h0.33c0.99-1.79,2.29-3.21,3.9-4.27
		C479.25,21.49,480.97,20.97,482.82,20.97z"/>
</g>
<g>
	<path class="st2" d="M169.95,103.98h-3.4V77.79h-9.25v-3.02h21.9v3.02h-9.25V103.98z"/>
	<path class="st2" d="M202,93.01c0,3.57-0.9,6.36-2.7,8.36c-1.8,2-4.28,3.01-7.45,3.01c-1.96,0-3.7-0.46-5.21-1.38
		c-1.52-0.92-2.69-2.24-3.52-3.96s-1.24-3.73-1.24-6.03c0-3.57,0.89-6.35,2.68-8.34c1.78-1.99,4.26-2.99,7.43-2.99
		c3.06,0,5.5,1.02,7.3,3.06C201.1,86.78,202,89.53,202,93.01z M185.32,93.01c0,2.8,0.56,4.93,1.68,6.39c1.12,1.47,2.76,2.2,4.93,2.2
		c2.17,0,3.82-0.73,4.94-2.19c1.13-1.46,1.69-3.59,1.69-6.4c0-2.79-0.56-4.9-1.69-6.35c-1.13-1.44-2.79-2.17-4.98-2.17
		c-2.17,0-3.81,0.71-4.91,2.14C185.87,88.06,185.32,90.19,185.32,93.01z"/>
	<path class="st2" d="M226.71,93.01c0,3.57-0.9,6.36-2.7,8.36s-4.28,3.01-7.45,3.01c-1.96,0-3.7-0.46-5.21-1.38
		c-1.52-0.92-2.69-2.24-3.52-3.96c-0.83-1.72-1.24-3.73-1.24-6.03c0-3.57,0.89-6.35,2.68-8.34c1.78-1.99,4.26-2.99,7.43-2.99
		c3.06,0,5.5,1.02,7.3,3.06C225.81,86.78,226.71,89.53,226.71,93.01z M210.03,93.01c0,2.8,0.56,4.93,1.68,6.39
		c1.12,1.47,2.76,2.2,4.93,2.2c2.17,0,3.82-0.73,4.94-2.19c1.13-1.46,1.69-3.59,1.69-6.4c0-2.79-0.56-4.9-1.69-6.35
		c-1.13-1.44-2.79-2.17-4.98-2.17c-2.17,0-3.81,0.71-4.91,2.14C210.58,88.06,210.03,90.19,210.03,93.01z"/>
	<path class="st2" d="M235.84,103.98h-3.32V72.89h3.32V103.98z"/>
</g>
<polygon class="st1" points="62.92,67.37 69.9,55.29 55.95,55.29 "/>
</svg>
